<svg width="70" height="90" viewBox="0 0 70 90" fill="none" xmlns="http://www.w3.org/2000/svg">
<path d="M28.7142 0.351593C28.3134 0.527397 27.8579 0.7911 27.6939 0.914154C27.0744 1.4064 26.4368 2.53153 26.3274 3.3578L26.1999 4.21922H25.2889C24.0135 4.21922 22.8839 4.76421 22.3738 5.64321L21.9729 6.32883H14.2296C6.19469 6.32883 4.70068 6.43432 3.44352 7.04962C2.3139 7.61218 1.16606 8.73731 0.619469 9.82728L0.109318 10.8118L0.054659 20.3754L0 29.9389L0.400833 30.3609C0.965643 30.941 1.87663 30.9059 2.36856 30.3081C2.75117 29.851 2.75117 29.6752 2.75117 20.7621C2.75117 12.2885 2.78761 11.638 3.09735 10.97C3.55284 10.0207 4.46382 9.35262 5.66632 9.14165C6.21291 9.03618 9.9115 8.96586 14.2478 8.96586H21.8818V10.5481V12.1303H16.9261C14.102 12.1303 11.6606 12.2182 11.278 12.3061C10.039 12.6401 8.90942 13.5367 8.30817 14.6618L7.76158 15.7166V47.7125C7.76158 73.731 7.79802 79.8489 7.99844 80.3763C8.36283 81.3608 9.72931 82.7321 10.7314 83.1012C11.5513 83.4001 12.7902 83.4177 35.0911 83.4177H58.5945L59.4508 83.0133C60.4165 82.5563 61.4914 81.4839 61.9287 80.5345C62.2202 79.9544 62.2384 77.2822 62.2384 47.8004V15.7166L61.6918 14.6618C61.0906 13.5367 59.961 12.6401 58.722 12.3061C58.3394 12.2182 55.898 12.1303 53.0921 12.1303H48.1182V10.5481V8.96586H55.7522C60.0885 8.96586 63.7871 9.03618 64.3337 9.14165C65.4451 9.33504 66.3743 9.95034 66.848 10.7766C67.1395 11.304 67.1577 13.0269 67.2488 37.5687C67.3581 66.4704 67.2488 64.2026 68.4696 64.4487C68.9433 64.5366 69.1437 64.4663 69.5081 64.0971L69.9818 63.6576L69.9453 37.2347L69.8907 10.8118L69.3805 9.82728C68.8339 8.73731 67.6861 7.61218 66.5565 7.04962C65.2993 6.43432 63.8053 6.32883 55.7704 6.32883H48.0271L47.6262 5.64321C47.1161 4.76421 45.9865 4.21922 44.7111 4.21922H43.8001L43.6726 3.3578C43.5086 2.12719 42.6705 1.00206 41.5226 0.457077L40.5752 -7.62939e-06H35.0182C29.8985 -7.62939e-06 29.3883 0.0351486 28.7142 0.351593ZM40.557 3.07652C40.9396 3.42812 41.0125 3.67424 41.0125 4.46534C41.0125 6.31126 41.5044 6.73318 43.7454 6.85624L45.2941 6.94414V11.3392V15.7342L34.9453 15.7869L24.6148 15.8221L24.6512 11.3919L24.7059 6.94414L26.3092 6.85624C27.8579 6.76834 27.949 6.75076 28.4591 6.18819C28.9146 5.69595 28.9875 5.48499 28.9875 4.55325C28.9875 3.67424 29.0604 3.42812 29.443 3.07652L29.8803 2.63701H35H40.1197L40.557 3.07652ZM21.8818 15.4178C21.9001 16.3495 22.4649 17.4571 23.1754 17.9493L23.7949 18.3712H35H46.2051L46.8246 17.9493C47.5534 17.4571 48.0999 16.3495 48.1182 15.4178V14.7497L53.2379 14.8025L58.3576 14.8552L58.886 15.4353L59.4144 15.9979V26.2823V36.5667H55.2421C51.3795 36.5667 51.0515 36.5842 50.6325 36.9183C50.3774 37.0941 49.5393 38.2895 48.7559 39.5553C47.9724 40.821 47.2983 41.8231 47.2618 41.7704C47.2072 41.7352 46.7881 38.9927 46.3144 35.7052C45.531 30.2554 45.4217 29.6752 45.0208 29.2709C44.456 28.6908 43.5815 28.5501 42.8345 28.9193C42.3243 29.183 41.9599 29.7983 39.974 33.7011C38.735 36.1623 37.6783 38.1489 37.6236 38.1137C37.5872 38.061 37.2775 37.0062 36.9313 35.7404C36.6033 34.4922 36.2207 33.2967 36.1114 33.0858C35.583 32.1365 33.9979 31.9431 33.2327 32.7518C33.0141 32.9627 32.0484 35.1075 31.0828 37.5336C30.1171 39.942 29.2608 41.9813 29.2061 42.0517C29.1333 42.122 28.1494 39.485 27.0016 36.1975C24.6877 29.4467 24.5055 29.1303 23.1754 29.1303C22.5924 29.1303 22.2827 29.2357 21.9729 29.5522C21.7361 29.7807 20.6793 31.8376 19.6226 34.1054L17.7095 38.2368L14.1385 38.2895L10.5856 38.3247V27.1964C10.5856 16.0682 10.5856 16.0506 10.9682 15.576C11.1869 15.3123 11.5331 15.0134 11.7517 14.9431C11.9521 14.8552 14.3207 14.7849 17.0172 14.7849L21.8818 14.7673V15.4178ZM27.9125 46.2533C28.6596 46.7983 30.1171 46.6225 30.5726 45.9017C30.6819 45.7435 31.5383 43.7042 32.4675 41.3836C33.3967 39.0806 34.1983 37.1116 34.2712 37.0413C34.3441 36.9534 34.672 37.8676 35 39.063C35.6923 41.5946 35.911 42.0517 36.5487 42.3329C37.1864 42.6142 37.6419 42.5966 38.2978 42.2626C38.7533 42.0341 39.1905 41.3133 40.9761 37.7621C42.5612 34.5977 43.126 33.6132 43.2353 33.8593C43.3082 34.0527 43.709 36.6018 44.1098 39.5377C44.5289 42.4736 44.9844 45.1106 45.1301 45.3743C45.2759 45.6556 45.5492 45.9544 45.7314 46.0599C46.2598 46.3236 47.2436 46.2709 47.6991 45.972C47.9178 45.8138 49.0109 44.2316 50.1223 42.456L52.1447 39.2037H55.7887H59.4144V59.4032C59.4144 79.4797 59.4144 79.5852 59.05 80.0423C58.8313 80.306 58.3576 80.5873 57.9932 80.6928C57.064 80.9389 12.936 80.9389 12.0068 80.6928C11.6424 80.5873 11.1687 80.306 10.95 80.0423C10.5856 79.5852 10.5856 79.4622 10.5856 60.2822V40.9617H14.594C17.7642 40.9617 18.7298 40.9089 19.1307 40.698C19.6773 40.4343 19.7684 40.2761 21.809 35.8986L23.0479 33.1913L25.2525 39.5553C27.0198 44.6359 27.5482 45.9896 27.9125 46.2533Z" fill="black"/>
<path d="M17.5455 55.4302C17.0172 55.9752 17.0354 56.696 17.6002 57.2234L18.0375 57.6629H35H51.9625L52.3998 57.2234C52.9828 56.6784 53.001 55.9224 52.4362 55.4126L52.0172 55.0258H34.9818H17.9282L17.5455 55.4302Z" fill="black"/>
<path d="M17.5455 63.8686C17.0172 64.4136 17.0354 65.1344 17.6002 65.6618L18.0375 66.1013H35H51.9625L52.3998 65.6618C52.9828 65.1168 53.001 64.3608 52.4362 63.851L52.0172 63.4642H34.9818H17.9282L17.5455 63.8686Z" fill="black"/>
<path d="M17.5091 72.2894C17.0536 72.7641 17.0354 73.5024 17.4908 74.0298L17.837 74.4518H35H52.1629L52.5091 74.0298C52.9828 73.4673 52.9463 72.7465 52.4362 72.2894L52.0171 71.9026H34.9453H17.8917L17.5091 72.2894Z" fill="black"/>
<path d="M0.801629 34.2813C0.582993 34.3692 0.309698 34.5977 0.218599 34.7911C0.0728417 35.0372 0.0364024 42.6142 0.054622 60.335L0.109281 85.5273L0.582993 86.5118C1.20246 87.7775 2.33208 88.8675 3.6439 89.4652L4.6642 89.9223L10.4216 89.975C16.0333 90.0278 16.179 90.0278 16.6527 89.6586C17.3269 89.1488 17.3269 88.2522 16.671 87.7424C16.1973 87.3908 15.9604 87.3732 10.8771 87.3732C6.10355 87.3732 5.50231 87.338 4.8464 87.0392C3.99007 86.6524 3.22485 85.914 2.95155 85.2108C2.80579 84.8592 2.75113 77.0361 2.75113 60.0361C2.75113 42.3154 2.69648 35.2306 2.55072 34.9317C2.4414 34.6856 2.14988 34.4043 1.89481 34.2988C1.38466 34.0703 1.34822 34.0703 0.801629 34.2813Z" fill="black"/>
<path d="M67.7043 68.301L67.2488 68.7229V76.7219C67.2488 81.9431 67.1759 84.879 67.0484 85.213C66.7751 85.9163 66.0098 86.6546 65.1535 87.0414C64.4612 87.3578 63.4591 87.3754 42.9984 87.3754C22.3191 87.3754 21.5356 87.393 21.1348 87.7094C20.5518 88.1665 20.5518 89.2213 21.1348 89.6784C21.5538 90.0124 22.228 90.0124 43.4539 89.9773L65.3357 89.9245L66.356 89.4674C67.6678 88.8697 68.7975 87.7797 69.4169 86.514L69.8906 85.5295L69.9453 77.1086L70 68.6877L69.5991 68.2658C69.0525 67.7208 68.2691 67.7384 67.7043 68.301Z" fill="black"/>
</svg>
