<svg width="70" height="80" viewBox="0 0 70 80" fill="none" xmlns="http://www.w3.org/2000/svg">
<path d="M14.3649 0.390625L14.0004 0.765625V19.1406V37.5H15.167H16.3337V20V2.5H36.7503H57.1669V7.73438V12.9844L57.5315 13.3594L57.8815 13.75H62.7815H67.6669V44.375V75H51.3336H35.0003V76.25V77.5H52.1357H69.2856L69.6356 77.1094L70.0002 76.7344V42.4688V8.20312L66.1648 4.10938L62.344 0H38.5295H14.7149L14.3649 0.390625ZM64.4877 5.89062L67.6669 9.29688V10.2656V11.25H63.5835H59.5002V6.875V2.5H60.4044H61.3231L64.4877 5.89062Z" fill="black"/>
<path d="M24.8648 11.6406L24.5002 12.0156V26.25V40.4844L24.8648 40.8594C25.2148 41.25 25.244 41.25 28.0002 41.25C30.7565 41.25 30.7856 41.25 31.1356 40.8594L31.5002 40.4844V26.25V12.0156L31.1356 11.6406C30.7856 11.25 30.7565 11.25 28.0002 11.25C25.244 11.25 25.2148 11.25 24.8648 11.6406ZM29.1669 26.25V38.75H28.0002H26.8336V26.25V13.75H28.0002H29.1669V26.25Z" fill="black"/>
<path d="M34.1981 21.6406L33.8335 22.0156V31.25V40.4844L34.1981 40.8594C34.5481 41.25 34.5772 41.25 37.3335 41.25C40.0897 41.25 40.1189 41.25 40.4689 40.8594L40.8335 40.4844V31.25V22.0156L40.4689 21.6406C40.1189 21.25 40.0897 21.25 37.3335 21.25C34.5772 21.25 34.5481 21.25 34.1981 21.6406ZM38.5001 31.25V38.75H37.3335H36.1668V31.25V23.75H37.3335H38.5001V31.25Z" fill="black"/>
<path d="M43.5307 26.6406L43.1661 27.0156V33.75V40.4844L43.5307 40.8594C43.8807 41.25 43.9099 41.25 46.6661 41.25C49.4224 41.25 49.4515 41.25 49.8015 40.8594L50.1661 40.4844V33.75V27.0156L49.8015 26.6406C49.4515 26.25 49.4224 26.25 46.6661 26.25C43.9099 26.25 43.8807 26.25 43.5307 26.6406ZM47.8328 33.75V38.75H46.6661H45.4995V33.75V28.75H46.6661H47.8328V33.75Z" fill="black"/>
<path d="M52.8643 30.3906L52.4998 30.7656V35.625V40.4844L52.8643 40.8594C53.2143 41.25 53.2435 41.25 55.9997 41.25C58.756 41.25 58.7852 41.25 59.1352 40.8594L59.4997 40.4844V35.625V30.7656L59.1352 30.3906C58.7852 30 58.756 30 55.9997 30C53.2435 30 53.2143 30 52.8643 30.3906ZM57.1664 35.625V38.75H55.9997H54.8331V35.625V32.5H55.9997H57.1664V35.625Z" fill="black"/>
<path d="M14.0004 41.25V42.5H15.167H16.3337V41.25V40H15.167H14.0004V41.25Z" fill="black"/>
<path d="M13.1979 45.3906C12.8479 45.75 12.8333 45.8437 12.8333 47.875C12.8333 49.9062 12.8187 50 12.4541 50.4531C12.0604 50.9687 11.3312 51.2031 10.7625 51C10.5875 50.9375 9.78539 50.2187 8.99789 49.4062C7.13123 47.4687 7.26248 47.4531 4.7104 50.2031C3.16457 51.8594 2.77082 52.375 2.77082 52.7187C2.77082 53.0469 3.09166 53.5 4.14165 54.6719C4.89998 55.5156 5.55623 56.375 5.61457 56.5625C5.78957 57.1406 5.55623 57.9219 5.08957 58.3437C4.66665 58.7344 4.57915 58.75 2.68333 58.75C0.787498 58.75 0.699998 58.7656 0.364582 59.1406C0 59.5156 0 59.5469 0 62.5C0 65.4531 0 65.4844 0.364582 65.8594C0.699998 66.2344 0.787498 66.25 2.68333 66.25C4.57915 66.25 4.66665 66.2656 5.08957 66.6562C5.57082 67.0781 5.78957 67.8594 5.59998 68.4687C5.54165 68.6562 4.8854 69.5 4.14165 70.3437C3.07707 71.5156 2.77082 71.9375 2.77082 72.2812C2.77082 72.6406 3.14999 73.125 4.78332 74.875C6.41665 76.625 6.86873 77.0312 7.20414 77.0312C7.52498 77.0312 7.91873 76.7031 9.01247 75.5625C9.79997 74.7656 10.5875 74.0625 10.7625 74C11.3312 73.7969 12.0604 74.0312 12.4541 74.5469C12.8187 75 12.8333 75.0937 12.8333 77.125C12.8333 79.1562 12.8479 79.25 13.1979 79.6094C13.5479 80 13.577 80 16.3333 80C19.0895 80 19.1187 80 19.4687 79.6094C19.8187 79.25 19.8333 79.1562 19.8333 77.125C19.8333 75.0937 19.8479 75 20.2124 74.5469C20.6062 74.0312 21.3354 73.7969 21.9041 74C22.0791 74.0625 22.8666 74.7656 23.6541 75.5625C24.7478 76.7031 25.1416 77.0312 25.4624 77.0312C26.0603 77.0312 29.8957 72.9219 29.8957 72.2812C29.8957 71.9531 29.5749 71.5 28.5249 70.3281C27.7666 69.4844 27.1103 68.625 27.052 68.4375C26.877 67.8594 27.1103 67.0781 27.577 66.6562C27.9999 66.2656 28.0874 66.25 29.9832 66.25C31.8791 66.25 31.9666 66.2344 32.302 65.8594C32.6666 65.4844 32.6666 65.4531 32.6666 62.5C32.6666 59.5469 32.6666 59.5156 32.302 59.1406C31.9666 58.7656 31.8791 58.75 29.9832 58.75C28.0874 58.75 27.9999 58.7344 27.577 58.3437C27.0957 57.9219 26.877 57.1406 27.0666 56.5312C27.1249 56.3437 27.7812 55.5 28.5249 54.6562C29.5895 53.4844 29.8957 53.0625 29.8957 52.7187C29.8957 52.3594 29.5166 51.875 27.8832 50.125C26.2499 48.375 25.7978 47.9687 25.4624 47.9687C25.1416 47.9687 24.7478 48.2969 23.6541 49.4375C22.8666 50.2344 22.0791 50.9375 21.9041 51C21.3354 51.2031 20.6062 50.9687 20.2124 50.4531C19.8479 50 19.8333 49.9062 19.8333 47.875C19.8333 45.8437 19.8187 45.75 19.4687 45.3906C19.1187 45 19.0895 45 16.3333 45C13.577 45 13.5479 45 13.1979 45.3906ZM17.4999 48.7969C17.4999 50.9844 18.127 52.2656 19.5999 53.0937C20.2124 53.4375 20.5333 53.5156 21.4374 53.5156C22.7645 53.5156 23.1874 53.2969 24.4708 51.9687L25.3895 51.0312L26.2208 51.9219L27.052 52.8125L26.1478 53.7812C24.9374 55.125 24.7187 55.5937 24.7187 57.0312C24.7187 58 24.7916 58.3437 25.1124 59C25.8853 60.5781 27.0812 61.25 29.1228 61.25H30.3332V62.5V63.75H29.1228C27.0812 63.75 25.8853 64.4219 25.1124 66C24.7916 66.6562 24.7187 67 24.7187 67.9687C24.7187 69.3906 24.9228 69.8437 26.1624 71.2187L27.0374 72.2031L26.2062 73.0937L25.3749 73.9844L24.4708 73.0156C23.2166 71.7187 22.7791 71.4844 21.4374 71.4844C20.5333 71.4844 20.2124 71.5625 19.5999 71.9062C18.127 72.7344 17.4999 74.0156 17.4999 76.2031V77.5H16.3333H15.1666V76.2031C15.1666 74.0156 14.5395 72.7344 13.0666 71.9062C12.4541 71.5625 12.1333 71.4844 11.2291 71.4844C9.90205 71.4844 9.47914 71.7031 8.19581 73.0312L7.27706 73.9687L6.44581 73.0781L5.61457 72.1875L6.51873 71.2187C7.72914 69.875 7.94789 69.4062 7.94789 67.9687C7.94789 67 7.87498 66.6562 7.55414 66C6.78123 64.4219 5.5854 63.75 3.54374 63.75H2.33333V62.5V61.25H3.54374C5.5854 61.25 6.78123 60.5781 7.55414 59C7.87498 58.3437 7.94789 58 7.94789 57.0312C7.94789 55.6094 7.74373 55.1562 6.50415 53.7812L5.62915 52.7969L6.4604 51.9062L7.29164 51.0156L8.19581 51.9844C9.44997 53.2812 9.88747 53.5156 11.2291 53.5156C12.1333 53.5156 12.4541 53.4375 13.0666 53.0937C14.5395 52.2656 15.1666 50.9844 15.1666 48.7969V47.5H16.3333H17.4999V48.7969Z" fill="black"/>
<path d="M14.5982 55.25C10.9086 56.3125 8.61904 60.4219 9.55237 64.2969C10.4565 68 13.7961 70.4375 17.2669 69.8906C20.3732 69.4219 22.794 66.8438 23.2315 63.5313C23.9315 58.3281 19.3086 53.8906 14.5982 55.25ZM18.244 57.9531C19.2503 58.4688 19.8773 59.1094 20.4315 60.1875C20.8836 61.0781 20.9273 61.2813 20.9273 62.5C20.9273 63.7344 20.8836 63.9063 20.4023 64.8438C18.1565 69.2188 12.0753 67.8281 11.6961 62.8594C11.5357 60.6094 12.8044 58.5625 14.8753 57.75C15.7503 57.4063 17.3544 57.5156 18.244 57.9531Z" fill="black"/>
<path d="M38.4994 48.75V50H48.416H58.3327V48.75V47.5H48.416H38.4994V48.75Z" fill="black"/>
<path d="M38.4994 56.25V57.5H48.416H58.3327V56.25V55H48.416H38.4994V56.25Z" fill="black"/>
<path d="M38.4994 65V66.25H48.416H58.3327V65V63.75H48.416H38.4994V65Z" fill="black"/>
<path d="M30.3331 76.25V77.5H31.4998H32.6665V76.25V75H31.4998H30.3331V76.25Z" fill="black"/>
</svg>
